<?xml version="1.0" encoding="UTF-8" standalone="no"?>
<!-- Created with Inkscape (http://www.inkscape.org/) -->

<svg
   width="500"
   height="500"
   viewBox="0 0 132.29166 132.29166"
   version="1.1"
   id="svg1"
   xml:space="preserve"
   inkscape:export-filename="appicon.png"
   inkscape:export-xdpi="196.61"
   inkscape:export-ydpi="196.61"
   inkscape:version="1.4 (e7c3feb1, 2024-10-09)"
   sodipodi:docname="appicon.svg"
   xmlns:inkscape="http://www.inkscape.org/namespaces/inkscape"
   xmlns:sodipodi="http://sodipodi.sourceforge.net/DTD/sodipodi-0.dtd"
   xmlns="http://www.w3.org/2000/svg"
   xmlns:svg="http://www.w3.org/2000/svg"><sodipodi:namedview
     id="namedview1"
     pagecolor="#000000"
     bordercolor="#000000"
     borderopacity="0.25"
     inkscape:showpageshadow="2"
     inkscape:pageopacity="0.0"
     inkscape:pagecheckerboard="0"
     inkscape:deskcolor="#d1d1d1"
     inkscape:document-units="px"
     showgrid="true"
     inkscape:zoom="0.75810007"
     inkscape:cx="-3.9572612"
     inkscape:cy="128.61099"
     inkscape:window-width="2016"
     inkscape:window-height="1186"
     inkscape:window-x="0"
     inkscape:window-y="31"
     inkscape:window-maximized="0"
     inkscape:current-layer="layer1"><inkscape:grid
       id="grid1"
       units="px"
       originx="0"
       originy="0"
       spacingx="0.26458333"
       spacingy="0.26458333"
       empcolor="#0099e5"
       empopacity="0.30196078"
       color="#0099e5"
       opacity="0.14901961"
       empspacing="5"
       enabled="true"
       visible="true" /></sodipodi:namedview><defs
     id="defs1" /><g
     inkscape:label="Layer 1"
     inkscape:groupmode="layer"
     id="layer1"><rect
       style="fill:#ffffff;fill-opacity:1;stroke-width:0.43136"
       id="rect4"
       width="132.29166"
       height="132.29166"
       x="1.7763568e-15"
       y="0"
       ry="29.665716"
       inkscape:label="white background" /><g
       id="g4"
       transform="translate(17.197916,31.749998)"
       inkscape:label="logo"><path
         style="fill:#ff0000;fill-opacity:1"
         d="m 42.026376,68.712172 -2.007629,-0.02859 -2.007629,-0.04327 -2.00763,-0.04327 -2.103231,-0.05644 -2.103231,-0.05644 -1.586983,-0.05713 -1.586983,-0.05713 -0.936894,-0.03929 -0.936894,-0.03929 -1.548742,-0.07624 -1.548743,-0.07624 -0.65009,-0.03917 -0.650089,-0.03917 -0.611849,-0.03718 -0.611849,-0.03718 -0.554488,-0.03977 -0.554488,-0.03977 -0.745691,-0.05769 -0.745691,-0.0577 -0.860413,-0.07577 -0.860412,-0.07577 -0.554489,-0.05832 -0.554488,-0.05832 -0.66921,-0.077 -0.669209,-0.077 -0.554489,-0.07672 -0.554488,-0.07672 -0.68833,-0.117044 -0.68833,-0.117044 L 11.357447,66.86595 10.841199,66.750383 10.391698,66.620853 9.9421977,66.491322 9.3974438,66.274872 8.8526898,66.058421 8.4457941,65.853792 8.0388984,65.649163 7.7001032,65.449614 7.361308,65.250066 6.9789024,64.989856 6.5964968,64.729647 6.1939637,64.405675 5.7914306,64.081702 5.4040128,63.712116 5.0165951,63.34253 4.6910994,62.96755 4.3656038,62.59257 4.0470292,62.165606 3.7284547,61.738641 3.4824684,61.342148 3.2364821,60.945654 2.9954383,60.482615 2.7543945,60.019575 2.5849832,59.613881 2.4155718,59.208188 2.262124,58.75257 2.1086761,58.296953 1.9741659,57.760514 1.8396557,57.224075 1.7245717,56.704445 1.6094878,56.184815 1.4751984,55.438341 1.3409089,54.691867 1.2242795,53.924531 1.1076502,53.157195 0.99436365,52.255575 0.88107715,51.353956 0.7862459,50.452336 0.69141466,49.550716 0.61453571,48.66828 0.53765677,47.785844 0.47957309,46.999324 0.42148941,46.212805 0.40152999,45.944237 0.38157056,45.67567 0.32522582,44.7165 0.26888108,43.75733 0.2122889,42.567959 0.15569672,41.378589 0.11534823,40.285135 0.07499974,39.191681 0.03796762,37.71456 9.3550973e-4,36.237438 v -1.860789 -1.86079 l 0.0370321103,-1.477122 0.03703212,-1.477121 0.04034849,-1.093454 0.0403485,-1.093453 0.0565922,-1.189371 0.0565922,-1.189371 0.0569785,-0.95917 0.0569785,-0.95917 0.0575276,-0.805702 0.0575277,-0.805703 0.0769506,-0.920803 0.0769506,-0.920803 0.0766673,-0.767336 0.0766673,-0.767336 0.0963759,-0.824886 0.0963759,-0.824886 L 1.1124154,15.615286 1.2269499,14.7904 1.3578366,14.00388 1.4887233,13.217361 1.6249319,12.535151 1.7611405,11.852941 1.9336133,11.163197 2.106086,10.473453 2.2623904,10.003801 2.4186948,9.5341487 2.6070662,9.0929305 2.7954377,8.6517124 3.016982,8.2282976 3.2385263,7.8048829 3.4834905,7.4097085 3.7284547,7.0145342 4.0778202,6.5478356 4.4271856,6.0811371 4.8147166,5.6502788 5.2022475,5.2194204 5.6316882,4.8306103 6.0611289,4.4418001 6.5260723,4.0912813 6.9910158,3.7407625 7.4056052,3.4803549 7.8201947,3.2199472 8.4702842,2.8984257 9.1203738,2.5769043 9.5027794,2.4346764 9.885185,2.2924484 l 0.48512,-0.1469454 0.485121,-0.1469455 0.629379,-0.1358004 0.629379,-0.1358005 0.701927,-0.1133915 0.701927,-0.1133916 0.592729,-0.077998 0.592729,-0.077998 0.860412,-0.095531 0.860413,-0.095531 0.841292,-0.076687 0.841293,-0.0766873 0.975134,-0.0765327 0.975134,-0.0765327 0.573609,-0.0393463 0.573608,-0.0393463 0.592729,-0.0380576 0.592728,-0.0380576 1.013375,-0.0574285 1.013375,-0.0574285 1.204578,-0.057816 1.204577,-0.057816 1.414901,-0.057191 1.414901,-0.057191 1.147217,-0.0392149 1.147217,-0.0392148 2.10323,-0.056464 2.103231,-0.056464 1.912028,-0.0401513 1.912028,-0.0401513 2.71508,-0.03737356 2.71508,-0.0373735526 h 3.537252 3.537252 l 2.71508,0.0375203226 2.715079,0.03752032 1.931149,0.03938153 1.931148,0.0393815 1.434021,0.0381414 1.434021,0.0381414 1.281059,0.0391024 1.281059,0.0391024 1.510502,0.0572579 1.510502,0.0572579 1.242818,0.0570366 1.242819,0.0570366 1.108976,0.0586756 1.108976,0.0586756 1.472262,0.0951577 1.472261,0.0951577 1.204578,0.0969141 1.204578,0.0969141 1.147216,0.1152768 1.147217,0.1152767 0.898653,0.1140272 0.898654,0.1140272 0.592728,0.095775 0.592729,0.095775 0.497127,0.098495 0.497128,0.098495 0.440177,0.1102791 0.440177,0.1102792 0.47143,0.1581408 0.471429,0.1581409 0.405063,0.1702666 0.405063,0.1702666 0.461517,0.2418395 0.461516,0.2418395 0.395249,0.2467983 0.39525,0.2467983 0.465163,0.3505188 0.465163,0.3505188 0.429441,0.3888102 0.42944,0.3888101 0.387531,0.4308584 0.387531,0.4308583 0.349366,0.4666985 0.349365,0.4666986 0.244964,0.3951743 0.244965,0.3951744 0.221544,0.4234147 0.221544,0.4234148 0.188372,0.4412181 0.188371,0.4412182 0.15303,0.4604015 0.15303,0.4604019 0.15594,0.613868 0.155941,0.613869 0.153241,0.753904 0.15324,0.753903 0.1536,0.934236 0.153601,0.934235 0.114298,0.863253 0.114298,0.863253 0.09582,0.844069 0.09582,0.84407 0.114972,1.266104 0.114971,1.266104 0.07605,1.035904 0.07605,1.035903 0.07635,1.342838 0.07635,1.342838 0.03891,0.863253 0.03891,0.863253 0.03917,1.055087 0.03916,1.055087 0.03775,1.515488 0.03774,1.515488 -2.5e-4,1.80324 -2.5e-4,1.803239 -0.03703,1.477122 -0.03703,1.477121 -0.04035,1.093454 -0.04035,1.093454 -0.05659,1.18937 -0.05659,1.189371 -0.05713,0.95917 -0.05713,0.95917 -0.07708,1.055087 -0.07708,1.055087 -0.09603,1.07427 -0.09603,1.07427 -0.07648,0.709786 -0.07648,0.709786 -0.09529,0.767336 -0.09529,0.767335 -0.09547,0.652236 -0.09547,0.652235 -0.112571,0.671419 -0.112572,0.671419 -0.134062,0.671419 -0.134062,0.671419 -0.170707,0.690602 -0.170707,0.690603 -0.15824,0.473398 -0.158241,0.473398 -0.169706,0.4064 -0.169707,0.4064 -0.241043,0.46304 -0.241044,0.463039 -0.245986,0.396494 -0.245987,0.396493 -0.318574,0.426965 -0.318575,0.426964 -0.325496,0.37498 -0.325495,0.37498 -0.387418,0.369586 -0.387418,0.369586 -0.402533,0.325114 -0.402533,0.325114 -0.535368,0.358381 -0.535368,0.358382 -0.592728,0.306136 -0.592729,0.306135 -0.535368,0.211342 -0.535368,0.211342 -0.458886,0.135667 -0.458887,0.135668 -0.516248,0.113945 -0.516247,0.113945 -0.439767,0.07814 -0.439766,0.07814 -0.659929,0.09751 -0.659928,0.09751 -0.793213,0.09484 -0.793213,0.09484 -0.956014,0.095 -0.956014,0.095 -1.204578,0.09668 -1.204577,0.09668 -1.147217,0.07681 -1.147217,0.07681 -1.39578,0.07673 -1.395781,0.07673 -1.281059,0.05853 -1.281058,0.05853 -1.491382,0.05644 -1.491382,0.05644 -1.261939,0.03961 -1.261938,0.03961 -1.434021,0.03776 -1.434021,0.03776 -1.892908,0.03922 -1.892908,0.03922 -2.619478,0.03768 -2.619479,0.03768 -4.416784,-0.006 -4.416785,-0.006 z"
         id="path5"
         sodipodi:nodetypes="ccccccccccccccccccccccccccccccccccccccccccccccccccccccccccccccccccccccccccccccccccccccccccccccccccccccccccccccccccccccccccccccccccccccccccccccccccccccccccccccccccccccccccccccccccccccccccccccccccccccccccccccccccccccccccccccccccccccccccccccccccccccccccccccccccccccccccccccccccccccccccccccccccccccccccccccccccccccccccccccccc"
         inkscape:label="play button" /><g
         id="g3"
         transform="matrix(1.4444445,0,0,1.4285715,-98.189818,-45.92411)"
         inkscape:label="symbol"
         style="display:inline"><path
           style="fill:#ffffff;fill-opacity:1;stroke-width:0.529167"
           d="m 96.572915,42.333333 h 10.583335 v 9.260416 h 6.61458 l -11.90625,11.90625 -11.906248,-11.90625 h 6.614583 z"
           id="path2"
           sodipodi:nodetypes="cccccccc"
           inkscape:label="arrow" /><path
           style="fill:#ffffff;fill-opacity:1;stroke-width:0.529167"
           d="m 89.958332,67.468749 h 23.812498 v 2.645833 H 89.958332 Z"
           id="path3"
           sodipodi:nodetypes="ccccc"
           inkscape:label="underline" /></g></g></g></svg>
